<svg id="visual" viewBox="0 0 960 300" width="960" height="300" xmlns="http://www.w3.org/2000/svg" xmlns:xlink="http://www.w3.org/1999/xlink" version="1.1"><rect x="0" y="0" width="960" height="300" fill="#202731"></rect><path d="M0 176L22.8 173C45.7 170 91.3 164 137 168.2C182.7 172.3 228.3 186.7 274 195.2C319.7 203.7 365.3 206.3 411.2 206.3C457 206.3 503 203.7 548.8 196.3C594.7 189 640.3 177 686 171.8C731.7 166.7 777.3 168.3 823 172.5C868.7 176.7 914.3 183.3 937.2 186.7L960 190L960 0L937.2 0C914.3 0 868.7 0 823 0C777.3 0 731.7 0 686 0C640.3 0 594.7 0 548.8 0C503 0 457 0 411.2 0C365.3 0 319.7 0 274 0C228.3 0 182.7 0 137 0C91.3 0 45.7 0 22.8 0L0 0Z" fill="#ffc100"></path><path d="M0 133L22.8 133.7C45.7 134.3 91.3 135.7 137 140.3C182.7 145 228.3 153 274 155.2C319.7 157.3 365.3 153.7 411.2 155C457 156.3 503 162.7 548.8 163C594.7 163.3 640.3 157.7 686 157.7C731.7 157.7 777.3 163.3 823 164.7C868.7 166 914.3 163 937.2 161.5L960 160L960 0L937.2 0C914.3 0 868.7 0 823 0C777.3 0 731.7 0 686 0C640.3 0 594.7 0 548.8 0C503 0 457 0 411.2 0C365.3 0 319.7 0 274 0C228.3 0 182.7 0 137 0C91.3 0 45.7 0 22.8 0L0 0Z" fill="#ffa114"></path><path d="M0 110L22.8 107.7C45.7 105.3 91.3 100.7 137 97.3C182.7 94 228.3 92 274 90.7C319.7 89.3 365.3 88.7 411.2 90.7C457 92.7 503 97.3 548.8 103C594.7 108.7 640.3 115.3 686 118.8C731.7 122.3 777.3 122.7 823 124.7C868.7 126.7 914.3 130.3 937.2 132.2L960 134L960 0L937.2 0C914.3 0 868.7 0 823 0C777.3 0 731.7 0 686 0C640.3 0 594.7 0 548.8 0C503 0 457 0 411.2 0C365.3 0 319.7 0 274 0C228.3 0 182.7 0 137 0C91.3 0 45.7 0 22.8 0L0 0Z" fill="#fd8127"></path><path d="M0 82L22.8 77.5C45.7 73 91.3 64 137 64.3C182.7 64.7 228.3 74.3 274 77C319.7 79.7 365.3 75.3 411.2 70.3C457 65.3 503 59.7 548.8 63C594.7 66.3 640.3 78.7 686 81.5C731.7 84.3 777.3 77.7 823 71.8C868.7 66 914.3 61 937.2 58.5L960 56L960 0L937.2 0C914.3 0 868.7 0 823 0C777.3 0 731.7 0 686 0C640.3 0 594.7 0 548.8 0C503 0 457 0 411.2 0C365.3 0 319.7 0 274 0C228.3 0 182.7 0 137 0C91.3 0 45.7 0 22.8 0L0 0Z" fill="#f36236"></path><path d="M0 56L22.8 52C45.7 48 91.3 40 137 34.2C182.7 28.3 228.3 24.7 274 26.7C319.7 28.7 365.3 36.3 411.2 42.2C457 48 503 52 548.8 52.5C594.7 53 640.3 50 686 49.3C731.7 48.7 777.3 50.3 823 47.8C868.7 45.3 914.3 38.7 937.2 35.3L960 32L960 0L937.2 0C914.3 0 868.7 0 823 0C777.3 0 731.7 0 686 0C640.3 0 594.7 0 548.8 0C503 0 457 0 411.2 0C365.3 0 319.7 0 274 0C228.3 0 182.7 0 137 0C91.3 0 45.7 0 22.8 0L0 0Z" fill="#e44343"></path></svg>